<?xml version="1.0" encoding="utf-8"?>
<!-- Svg Vector Icons : http://www.onlinewebfonts.com/icon -->
<!DOCTYPE svg PUBLIC "-//W3C//DTD SVG 1.1//EN" "http://www.w3.org/Graphics/SVG/1.1/DTD/svg11.dtd">
<svg version="1.1" xmlns="http://www.w3.org/2000/svg" xmlns:xlink="http://www.w3.org/1999/xlink" x="0px" y="0px" viewBox="0 0 1000 1000" enable-background="new 0 0 1000 1000" xml:space="preserve">
<metadata> Svg Vector Icons : http://www.onlinewebfonts.com/icon </metadata>
<g><path d="M368.1,666.3h439.6c11.5,0,21.7-7.1,25.8-17.9l154.7-410.7c3.3-8.5,1.9-17.9-3-25.3s-13.5-11.8-22.5-11.8l-253.6-1.4c-2.5-0.8-5.2-1.1-8-1.1c-2.7,0-5.2,0.3-7.7,1.1l-459.9-2.5L198,101.4c-2.7-7.1-8.2-13.2-15.7-15.9L47.8,31.6C33.7,25.9,17.8,32.7,12,47C6.3,61,13.1,77,27.4,82.7l123.4,49.2l37.4,100.8c0,0.3,0.3,0.8,0.5,1.1L323.6,597l-59.9,159.4c-3.3,8.5-1.9,17.9,3,25.3c5.2,7.4,13.5,11.8,22.5,11.8h16.2c-19.8,18.7-32.1,45.1-32.1,74.5c0,56.6,45.9,102.5,102.5,102.5s102.5-45.9,102.5-102.5c0-29.4-12.4-55.8-32.1-74.5h216.2c-19.8,18.7-32.1,45.1-32.1,74.5c0,56.6,45.9,102.5,102.5,102.5c56.6,0,102.5-45.9,102.5-102.5c0-29.4-12.4-55.8-32.1-74.5h28.6c15.1,0,27.5-12.4,27.5-27.5s-12.4-27.5-27.5-27.5H329.1l28-75C360.7,665.5,364.3,666.3,368.1,666.3z M375.8,915.7c-26.1,0-47.5-21.4-47.5-47.5c0-26.1,21.4-47.5,47.5-47.5c26.1,0,47.5,21.4,47.5,47.5C423.3,894.3,402.2,915.7,375.8,915.7z M732.7,915.7c-26.1,0-47.5-21.4-47.5-47.5c0-26.1,21.4-47.5,47.5-47.5c26.1,0,47.5,21.4,47.5,47.5C780.2,894.3,759.1,915.7,732.7,915.7z M673.3,386.3v89.8H512.9v-89.8H673.3z M512.9,331.4v-78.3l160.4,0.8v77.5H512.9z M839.6,475.9H728.3V386h145.1L839.6,475.9z M673.3,530.8v80.2H512.9v-80.2H673.3z M457.9,475.9H337.1L303.8,386h154.1V475.9z M357.4,530.8h100.6v80.2h-70.6L357.4,530.8z M788.7,611.3h-60.4v-80.2H819L788.7,611.3z M894,331.4H728.3v-77.2l194.5,1.1L894,331.4z M457.9,252.5v78.6H283.2l-29.7-80L457.9,252.5z"/></g>
</svg>